<?xml version="1.0" encoding="utf-8"?>
<!-- Svg Vector Icons : http://www.onlinewebfonts.com/icon -->
<!DOCTYPE svg PUBLIC "-//W3C//DTD SVG 1.1//EN" "http://www.w3.org/Graphics/SVG/1.1/DTD/svg11.dtd">
<svg version="1.1" xmlns="http://www.w3.org/2000/svg" xmlns:xlink="http://www.w3.org/1999/xlink" x="0px" y="0px" viewBox="0 0 1000 1000" enable-background="new 0 0 1000 1000" xml:space="preserve">
<metadata> Svg Vector Icons : http://www.onlinewebfonts.com/icon </metadata>
<g><g><path d="M796.2,800.7c-2.6-10.3-4.2-23.4,0.3-33.3c1.4-3.3,5.9-13.3,28-19.4l33-9.1l-14.3-31.2c-34.8-75.9-2.7-211.2,2-224.2c-0.3,0.8-0.6,1.4-0.8,1.8c0.7-1.3,56.7-144.7-119.7-293.7c-75.7-63.9-104.3-78.1-123.2-87.5c-15.5-7.7-22.6-11.2-63-58.9L508.9,10l-19.1,42c-24.9,54.9-25.5,94.1-19.8,119.6c-19.9,7.4-47.5,18.6-76.6,33.4c-75.5,38.4-123.2,81.3-142,127.7c-44.3,60.3-102.1,87.5-102.6,87.7l-2.1,1.1c-9.5,5.3-20.2,16.6-21.8,32.1c-0.8,7.9,0.5,23.3,17,37.2l2,1.5c0.5,0.4,51.4,36.5,78,76.4c12,18,29.6,28,49.4,28c15.9,0,28.3-6.6,32.4-9.1c23-13.1,82.4-43,130.4-53.2c-111.2,97.2-138.2,198.3-141.3,266.3h-58V990h640.3V800.7H796.2z M522.6,539.6l29.5-20.4l-26-24.8c-15.2-14.5-36.4-21.8-63.1-21.8c-75.6,0-184.3,62-188.9,64.6l0.1-0.3l-1.1,0.8c-0.4,0.2-0.9,0.4-1.3,0.5c-0.4-0.4-0.8-0.9-1.5-1.9c-21.1-31.6-52.5-59.8-72.9-76.4c26.1-16.1,68.4-47.2,103.5-96.3l2.3-3.2l1.4-3.7c25.4-69.2,162.1-124.4,212.7-139.8l52.9-13.2l-39.4-34.1c-1.9-3.1-9.2-18-3-48.8c20.8,21.5,31.6,27.5,47.8,35.6c16.5,8.1,41.2,20.4,111.5,79.8C825.6,353.1,792,459.7,791.6,460.8c0.3-0.7,0.5-1.2,0.7-1.6c-4.7,9.4-41.8,143.3-12.5,244.6c-20.4,11.9-31.1,27.4-36.7,40c-8.6,19.4-9,39.7-6.4,56.8H351.1C357.6,673,459.6,583.3,522.6,539.6z M816.7,931.6H293.2v-72.5h1.4h522.1V931.6L816.7,931.6z"/></g><g></g><g></g><g></g><g></g><g></g><g></g><g></g><g></g><g></g><g></g><g></g><g></g><g></g><g></g><g></g></g>
</svg>